<svg width="280" height="280" viewBox="0 0 280 280" fill="none" xmlns="http://www.w3.org/2000/svg">
  <defs>
    <filter id="shadow" x="-20%" y="-20%" width="140%" height="140%">
      <feDropShadow dx="0" dy="4" stdDeviation="6" flood-color="#000" flood-opacity="0.2"/>
    </filter>
  </defs>
  
  <!-- Background -->
  <rect width="280" height="280" rx="20" fill="#005eb0"/>
  
  <!-- User Interface Icon - Person with connected nodes -->
  <g filter="url(#shadow)" transform="translate(90, 40)">
    <!-- Person silhouette -->
    <circle cx="50" cy="30" r="25" fill="white"/>
    <path d="M10,95 C10,65 30,50 50,50 C70,50 90,65 90,95 L90,100 L10,100 Z" fill="white"/>
    
    <!-- Connected wallet symbol -->
    <rect x="30" y="110" width="40" height="30" rx="5" fill="white"/>
    <circle cx="38" cy="125" r="6" fill="#005eb0"/>
    <rect x="50" y="120" width="15" height="10" rx="2" fill="#005eb0"/>
    
    <!-- Connection lines -->
    <line x1="5" y1="50" x2="20" y2="50" stroke="white" stroke-width="3" stroke-linecap="round"/>
    <line x1="80" y1="50" x2="95" y2="50" stroke="white" stroke-width="3" stroke-linecap="round"/>
    <circle cx="0" cy="50" r="6" fill="white"/>
    <circle cx="100" cy="50" r="6" fill="white"/>
  </g>
  
  <!-- Title -->
  <text x="140" y="235" text-anchor="middle" font-family="Inter, Arial, sans-serif" font-size="36" font-weight="700" fill="white">UX</text>
</svg>
