<svg width="280" height="280" viewBox="0 0 280 280" fill="none" xmlns="http://www.w3.org/2000/svg">
  <defs>
    <filter id="shadow" x="-20%" y="-20%" width="140%" height="140%">
      <feDropShadow dx="0" dy="4" stdDeviation="6" flood-color="#000" flood-opacity="0.2"/>
    </filter>
  </defs>
  
  <!-- Background -->
  <rect width="280" height="280" rx="20" fill="#005eb0"/>
  
  <!-- Scaling Icon - Multi-chain network -->
  <g filter="url(#shadow)" transform="translate(55, 30)">
    <!-- Central node -->
    <circle cx="85" cy="75" r="25" fill="white"/>
    <circle cx="85" cy="75" r="12" fill="#005eb0"/>
    
    <!-- Outer nodes -->
    <circle cx="30" cy="40" r="18" fill="white"/>
    <circle cx="140" cy="40" r="18" fill="white"/>
    <circle cx="30" cy="110" r="18" fill="white"/>
    <circle cx="140" cy="110" r="18" fill="white"/>
    <circle cx="85" cy="145" r="18" fill="white"/>
    
    <!-- Inner dots -->
    <circle cx="30" cy="40" r="8" fill="#005eb0"/>
    <circle cx="140" cy="40" r="8" fill="#005eb0"/>
    <circle cx="30" cy="110" r="8" fill="#005eb0"/>
    <circle cx="140" cy="110" r="8" fill="#005eb0"/>
    <circle cx="85" cy="145" r="8" fill="#005eb0"/>
    
    <!-- Connection lines -->
    <line x1="45" y1="50" x2="65" y2="65" stroke="white" stroke-width="4"/>
    <line x1="125" y1="50" x2="105" y2="65" stroke="white" stroke-width="4"/>
    <line x1="45" y1="100" x2="65" y2="85" stroke="white" stroke-width="4"/>
    <line x1="125" y1="100" x2="105" y2="85" stroke="white" stroke-width="4"/>
    <line x1="85" y1="100" x2="85" y2="127" stroke="white" stroke-width="4"/>
  </g>
  
  <!-- Title -->
  <text x="140" y="235" text-anchor="middle" font-family="Inter, Arial, sans-serif" font-size="32" font-weight="700" fill="white">Scaling</text>
</svg>
