<svg width="280" height="280" viewBox="0 0 280 280" fill="none" xmlns="http://www.w3.org/2000/svg">
  <defs>
    <filter id="shadow" x="-20%" y="-20%" width="140%" height="140%">
      <feDropShadow dx="0" dy="4" stdDeviation="6" flood-color="#000" flood-opacity="0.1"/>
    </filter>
  </defs>
  
  <!-- Security Icon - Lock with shield -->
  <g filter="url(#shadow)" transform="translate(75, 30)">
    <!-- Shield outline -->
    <path d="M65,10 L120,30 L120,80 C120,120 90,145 65,155 C40,145 10,120 10,80 L10,30 Z" fill="#005eb0"/>
    
    <!-- Lock body -->
    <rect x="40" y="70" width="50" height="40" rx="6" fill="white"/>
    
    <!-- Lock shackle -->
    <path d="M50,70 L50,55 C50,42 58,35 65,35 C72,35 80,42 80,55 L80,70" stroke="white" stroke-width="8" fill="none" stroke-linecap="round"/>
    
    <!-- Keyhole -->
    <circle cx="65" cy="85" r="6" fill="#005eb0"/>
    <rect x="62" y="88" width="6" height="12" rx="2" fill="#005eb0"/>
  </g>
  
  <!-- Title -->
  <text x="140" y="240" text-anchor="middle" font-family="'Space Grotesk', Inter, Arial, sans-serif" font-size="28" font-weight="700" fill="#005eb0">Security</text>
</svg>
