<svg width="280" height="280" viewBox="0 0 280 280" fill="none" xmlns="http://www.w3.org/2000/svg">
  <defs>
    <filter id="shadow" x="-20%" y="-20%" width="140%" height="140%">
      <feDropShadow dx="0" dy="4" stdDeviation="6" flood-color="#000" flood-opacity="0.2"/>
    </filter>
  </defs>
  
  <!-- Background -->
  <rect width="280" height="280" rx="20" fill="#005eb0"/>
  
  <!-- API Icon - Server with connection endpoints -->
  <g filter="url(#shadow)" transform="translate(70, 35)">
    <!-- Server box -->
    <rect x="25" y="20" width="90" height="120" rx="10" fill="white"/>
    
    <!-- Server lines -->
    <rect x="40" y="40" width="60" height="8" rx="2" fill="#005eb0" opacity="0.3"/>
    <rect x="40" y="58" width="45" height="8" rx="2" fill="#005eb0" opacity="0.3"/>
    <rect x="40" y="76" width="55" height="8" rx="2" fill="#005eb0" opacity="0.3"/>
    
    <!-- Server indicator lights -->
    <circle cx="50" cy="115" r="6" fill="#005eb0"/>
    <circle cx="70" cy="115" r="6" fill="#005eb0" opacity="0.5"/>
    <circle cx="90" cy="115" r="6" fill="#005eb0" opacity="0.3"/>
    
    <!-- Connection endpoints -->
    <circle cx="10" cy="60" r="10" fill="white"/>
    <line x1="20" y1="60" x2="25" y2="60" stroke="white" stroke-width="4"/>
    
    <circle cx="130" cy="60" r="10" fill="white"/>
    <line x1="115" y1="60" x2="120" y2="60" stroke="white" stroke-width="4"/>
    
    <circle cx="70" cy="155" r="10" fill="white"/>
    <line x1="70" y1="140" x2="70" y2="145" stroke="white" stroke-width="4"/>
  </g>
  
  <!-- Title -->
  <text x="140" y="235" text-anchor="middle" font-family="Inter, Arial, sans-serif" font-size="36" font-weight="700" fill="white">API</text>
</svg>
